<svg viewBox="0 0 560 560" xmlns="http://www.w3.org/2000/svg" stroke-miterlimit="1.414" stroke-linejoin="round" id="plex-icon-toolbar-play-trailer-560" aria-hidden="true" class="PlexIcon-plexIcon-8Tamaj"><path d="m225.671 503.994c-.557.004-1.114.006-1.671.006-123.629 0-224-100.371-224-224 0-123.629 100.371-224 224-224 123.629 0 224 100.371 224 224 0 50.138-16.508 96.451-44.381 133.794 18.895-11.081 36.634-24.143 52.605-39.141 9.395-8.823 18.171-18.311 26.162-28.425 8.67-10.973 16.416-22.684 23.006-35.021 4.995-9.352 12.891-29.047 12.891-29.047l41.717 12.492c0 0-9.027 23.185-14.752 34.221-7.693 14.83-16.785 28.923-27.015 42.128-9.197 11.871-19.311 23.024-30.164 33.401-8.779 8.393-18.041 16.28-27.702 23.641-8.554 6.519-17.421 12.626-26.548 18.316-4.487 2.797-9.037 5.493-13.644 8.088-32.896 18.526-68.648 31.851-105.499 39.964-29.172 6.423-59.044 9.582-89.005 9.589l0-.006m-64.671-104.994c0 34.771 28.229 63 63 63 34.771 0 63-28.229 63-63 0-34.771-28.229-63-63-63-34.771 0-63 28.229-63 63m119-119c0 34.771 28.229 63 63 63 34.771 0 63-28.229 63-63 0-34.771-28.229-63-63-63-34.771 0-63 28.229-63 63m-238 0c0 34.771 28.229 63 63 63 34.771 0 63-28.229 63-63 0-34.771-28.229-63-63-63-34.771 0-63 28.229-63 63m154 0c0 15.454 12.546 28 28 28 15.454 0 28-12.546 28-28 0-15.454-12.546-28-28-28-15.454 0-28 12.546-28 28m-35-119c0 34.771 28.229 63 63 63 34.771 0 63-28.229 63-63 0-34.771-28.229-63-63-63-34.771 0-63 28.229-63 63"></path></svg>